name analog
datacolumns 19
datarows 37
range 0.0 0.018000000000000002
endheader
time	ground_force_vx	ground_force_vy	ground_force_vz	ground_force_px	ground_force_py	ground_force_pz	l_ground_force_vx	l_ground_force_vy	l_ground_force_vz	l_ground_force_px	l_ground_force_py	l_ground_force_pz	ground_torque_x	ground_torque_y	ground_torque_z	l_ground_torque_x	l_ground_torque_y	l_ground_torque_z
0.0	-0.0	-0.0	-0.0	1.7540398836135864	18.00434112548828	-341.1769714355469	2.4839019775390625	-25.60980033874512	-455.2868347167969	-0.0	-0.0	-0.0	-0.0	-0.0	-0.0	153226.84375	-36937.6875	441.39398193359375
0.0005	-0.0	-0.0	-0.0	1.81292986869812	17.37966537475586	-340.23504638671875	2.719917297363281	-25.761579513549805	-455.9855651855469	-0.0	-0.0	-0.0	-0.0	-0.0	-0.0	153654.265625	-37311.9609375	560.1045532226562
0.001	-0.0	-0.0	-0.0	1.784210205078125	17.531017303466797	-338.9327392578125	2.305009603500366	-26.23154067993164	-456.9385070800781	-0.0	-0.0	-0.0	-0.0	-0.0	-0.0	154383.65625	-37433.3359375	627.9733276367188
0.0015	-0.0	-0.0	-0.0	1.6329247951507568	17.560916900634766	-335.6460266113281	2.6600918769836426	-26.79377174377441	-460.9884338378906	-0.0	-0.0	-0.0	-0.0	-0.0	-0.0	154705.171875	-37797.69140625	766.3511962890625
0.002	-0.0	-0.0	-0.0	1.4872702360153198	17.916494369506836	-333.5128173828125	2.661323547363281	-27.64357185363769	-462.3901977539063	-0.0	-0.0	-0.0	-0.0	-0.0	-0.0	155523.078125	-37742.2265625	845.115478515625
0.0025	-0.0	-0.0	-0.0	1.3088864088058472	17.38321876525879	-332.9217529296875	2.9284656047821045	-27.998979568481445	-464.6150207519531	-0.0	-0.0	-0.0	-0.0	-0.0	-0.0	155919.671875	-38268.6328125	914.5562133789062
0.003	-0.0	-0.0	-0.0	0.9488496780395508	16.993106842041016	-329.86358642578125	3.3113555908203125	-28.557600021362305	-466.2408752441406	-0.0	-0.0	-0.0	-0.0	-0.0	-0.0	156699.3125	-38479.28125	983.73095703125
0.0035	-0.0	-0.0	-0.0	1.3929686546325684	17.025653839111328	-327.187744140625	3.1068572998046875	-29.44078063964844	-468.79339599609375	-0.0	-0.0	-0.0	-0.0	-0.0	-0.0	157453.4375	-38646.31640625	1112.0035400390625
0.004	-0.0	-0.0	-0.0	1.5806934833526611	16.66738510131836	-325.6240539550781	3.6957216262817374	-29.911890029907227	-470.0750122070313	-0.0	-0.0	-0.0	-0.0	-0.0	-0.0	158272.71875	-39000.39453125	1408.9697265625
0.0045000000000000005	-0.0	-0.0	-0.0	1.5187389850616455	16.785505294799805	-321.8532409667969	3.8143134117126474	-30.735448837280277	-473.7977600097656	-0.0	-0.0	-0.0	-0.0	-0.0	-0.0	159178.65625	-39438.76953125	1458.1923828125
0.005	-0.0	-0.0	-0.0	1.579082489013672	16.07923698425293	-320.8021240234375	3.8735194206237793	-31.64837455749512	-476.2422790527344	-0.0	-0.0	-0.0	-0.0	-0.0	-0.0	159847.78125	-39609.65234375	1557.0068359375
0.0055	-0.0	-0.0	-0.0	1.3356444835662842	16.2242431640625	-316.3348083496094	4.110434055328369	-32.08987808227539	-478.8027038574219	-0.0	-0.0	-0.0	-0.0	-0.0	-0.0	160622.125	-40003.18359375	1843.7861328125
0.006	-0.0	-0.0	-0.0	1.4535259008407593	15.503326416015623	-315.2861328125	4.820674419403076	-32.64940643310547	-479.9674682617188	-0.0	-0.0	-0.0	-0.0	-0.0	-0.0	161291.953125	-40060.19921875	1794.6031494140625
0.006500000000000001	-0.0	-0.0	-0.0	1.6429781913757324	15.595027923583984	-311.379638671875	4.3472089767456055	-33.296897888183594	-483.4546203613281	-0.0	-0.0	-0.0	-0.0	-0.0	-0.0	161946.25	-40686.60546875	1962.3065185546875
0.007	-0.0	-0.0	-0.0	1.781175136566162	15.483022689819336	-310.5829467773437	4.583597183227539	-34.24020004272461	-484.5068664550781	-0.0	-0.0	-0.0	-0.0	-0.0	-0.0	162726.078125	-40711.515625	2021.53662109375
0.0075	-0.0	-0.0	-0.0	1.5771211385726929	15.62325954437256	-306.7998962402344	4.732557773590088	-34.740386962890625	-487.3034362792969	-0.0	-0.0	-0.0	-0.0	-0.0	-0.0	163194.984375	-41148.98828125	2170.08056640625
0.008	-0.0	-0.0	-0.0	2.0587353706359863	15.298422813415527	-305.2606506347656	4.732956409454346	-35.15100860595703	-489.04638671875	-0.0	-0.0	-0.0	-0.0	-0.0	-0.0	163636.6875	-41498.07421875	2248.560546875
0.0085	-0.0	-0.0	-0.0	1.6700074672698977	15.063037872314451	-303.5086669921875	4.763471603393555	-35.827274322509766	-491.1414489746094	-0.0	-0.0	-0.0	-0.0	-0.0	-0.0	164424.234375	-41475.96484375	2288.1796875
0.009000000000000001	-0.0	-0.0	-0.0	1.7805403470993042	14.735004425048828	-303.98956298828125	5.086918830871582	-36.59545135498047	-493.1217651367188	-0.0	-0.0	-0.0	-0.0	-0.0	-0.0	164865.125	-41787.4453125	2338.199951171875
0.0095	-0.0	-0.0	-0.0	1.5812662839889526	14.41853141784668	-299.6246643066406	4.879093170166016	-36.65350341796875	-494.6334228515625	-0.0	-0.0	-0.0	-0.0	-0.0	-0.0	165440.953125	-42147.53125	2475.71923828125
0.01	-0.0	-0.0	-0.0	1.3624520301818848	14.358150482177734	-297.9877014160156	4.99682092666626	-37.2412109375	-495.68109130859375	-0.0	-0.0	-0.0	-0.0	-0.0	-0.0	166003.546875	-42277.18359375	2544.646728515625
0.0105	-0.0	-0.0	-0.0	1.1230151653289795	14.119292259216309	-297.89263916015625	5.293666362762451	-38.03955459594727	-499.1588134765625	-0.0	-0.0	-0.0	-0.0	-0.0	-0.0	166930.03125	-42725.28515625	2594.256103515625
0.011	-0.0	-0.0	-0.0	1.5492697954177856	13.758743286132812	-293.5693359375	5.887828350067139	-38.71567535400391	-501.8446350097656	-0.0	-0.0	-0.0	-0.0	-0.0	-0.0	167606.609375	-42905.53515625	2653.110107421875
0.0115	-0.0	-0.0	-0.0	1.582188844680786	13.913538932800291	-292.46942138671875	5.528913021087647	-38.86154174804688	-503.2410278320313	-0.0	-0.0	-0.0	-0.0	-0.0	-0.0	168138.96875	-43175.27734375	2792.126220703125
0.012	-0.0	-0.0	-0.0	1.8782637119293213	13.430593490600586	-289.9799194335937	5.766201019287109	-39.63020324707031	-504.8637390136719	-0.0	-0.0	-0.0	-0.0	-0.0	-0.0	169109.921875	-43355.01953125	2990.102783203125
0.0125	-0.0	-0.0	-0.0	1.5545730590820312	13.224309921264648	-286.6709289550781	5.794928550720215	-39.80195999145508	-508.2417602539063	-0.0	-0.0	-0.0	-0.0	-0.0	-0.0	169475.078125	-43605.6875	3089.5234375
0.013000000000000001	-0.0	-0.0	-0.0	1.746028184890747	12.956993103027344	-285.9647216796875	6.4498372077941895	-40.45133209228516	-510.3675231933594	-0.0	-0.0	-0.0	-0.0	-0.0	-0.0	170149.328125	-43685.25	3197.14599609375
0.0135	-0.0	-0.0	-0.0	1.304882287979126	13.04098129272461	-284.1991577148437	6.118165016174316	-40.56814193725586	-512.0928344726562	-0.0	-0.0	-0.0	-0.0	-0.0	-0.0	170906.46875	-43954.55078125	3277.188232421875
0.014	-0.0	-0.0	-0.0	1.5220566987991333	12.506141662597656	-279.718505859375	6.298465728759766	-40.624942779541016	-512.678955078125	-0.0	-0.0	-0.0	-0.0	-0.0	-0.0	171282.5625	-44100.15234375	3416.0927734375
0.0145	-0.0	-0.0	-0.0	1.7172828912734983	12.42255973815918	-279.2550048828125	6.298465728759766	-40.83301162719727	-515.3353881835938	-0.0	-0.0	-0.0	-0.0	-0.0	-0.0	172064.5	-44411.08203125	3376.865234375
0.015	-0.0	-0.0	-0.0	1.756416916847229	11.97124195098877	-277.0262145996094	6.028934001922607	-41.53950500488281	-517.3575439453125	-0.0	-0.0	-0.0	-0.0	-0.0	-0.0	172706.4375	-44753.68359375	3374.300537109375
0.0155	-0.0	-0.0	-0.0	1.4273681640625	11.977142333984377	-274.75048828125	6.4474873542785645	-42.16121673583984	-518.3645629882812	-0.0	-0.0	-0.0	-0.0	-0.0	-0.0	173359.578125	-44811.66015625	3386.247802734375
0.016	-0.0	-0.0	-0.0	2.0303497314453125	11.648431777954102	-274.04315185546875	6.088973522186279	-42.47899627685547	-519.6343383789062	-0.0	-0.0	-0.0	-0.0	-0.0	-0.0	173681.84375	-45008.3515625	3363.26318359375
0.0165	-0.0	-0.0	-0.0	1.4422768354415894	11.442634582519531	-271.7889099121094	6.0323333740234375	-42.74769592285156	-520.2359619140625	-0.0	-0.0	-0.0	-0.0	-0.0	-0.0	173742.140625	-44906.0625	3483.027099609375
0.017	-0.0	-0.0	-0.0	2.0031425952911377	11.894818305969238	-270.40106201171875	6.30249547958374	-43.18529510498047	-521.74365234375	-0.0	-0.0	-0.0	-0.0	-0.0	-0.0	173746.453125	-45088.98046875	3543.759033203125
0.0175	-0.0	-0.0	-0.0	2.243673324584961	10.716425895690918	-270.07379150390625	6.44347095489502	-43.91965103149414	-520.2190551757812	-0.0	-0.0	-0.0	-0.0	-0.0	-0.0	173713.78125	-45240.53515625	3626.13427734375
0.018000000000000002	-0.0	-0.0	-0.0	1.9831998348236084	10.901329040527344	-268.7971496582031	6.205316066741943	-44.28597259521485	-521.52197265625	-0.0	-0.0	-0.0	-0.0	-0.0	-0.0	173647.921875	-45174.09765625	3609.208740234375
